<svg width="35" height="50" viewBox="0 0 35 50" xmlns="http://www.w3.org/2000/svg">
    <g fill="none" fill-rule="evenodd">
        <path d="M23.544 0v9.23H10.633V0h12.91zm-2.001 2h-8.911v5.23h8.911V2z" fill="#7A89C2" fill-rule="nonzero"/>
        <path d="M28.1 47.692v.872c0 .746-.569 1.36-1.297 1.43l-.139.006a1.436 1.436 0 01-1.436-1.436v-.872H28.1zm-19.151 0v.872c0 .746-.57 1.36-1.298 1.43L7.512 50a1.436 1.436 0 01-1.436-1.436v-.872h2.873zm20.227-40a5 5 0 015 5v29.231a5 5 0 01-5 5H5a5 5 0 01-5-5v-29.23a5 5 0 015-5h24.176zm0 2H5a3 3 0 00-2.995 2.824L2 12.692v29.231a3 3 0 002.824 2.995l.176.005h24.176a3 3 0 002.995-2.824l.005-.176v-29.23a3 3 0 00-3-3zM23.544 0v2.308H10.633V0h12.91z" fill="#7A89C2" fill-rule="nonzero"/>
        <rect fill="#E1E4F0" x="4.557" y="19.231" width="25.063" height="23.077" rx="3"/>
        <rect fill="#E1E4F0" x="4.557" y="11.538" width="25.063" height="4.615" rx="2.308"/>
    </g>
</svg>
