<svg width="46" height="45" viewBox="0 0 46 45" xmlns="http://www.w3.org/2000/svg">
    <g fill="none" fill-rule="evenodd">
        <circle fill="#FFF" cx="22.8" cy="22.5" r="22.5"/>
        <path d="M22.485 3.521c-10.473 0-18.962 8.49-18.962 18.962 0 7.547 4.42 14.043 10.8 17.095l.594-11.468s-1.117-.367-1.36-.486c-2.369-1.043-4.089-4.114-4.089-8.1 0-4.35 3.373-8.096 6.634-8.127H16.115c3.261.031 6.635 3.778 6.635 8.127 0 3.986-1.723 7.056-4.086 8.1-.018.008-1.371.5-1.371.5l.663 12.75c1.454.359 2.966.569 4.531.569 2.111 0 4.132-.36 6.029-.995l.587-11.364c-1.548-.34-2.868-1.326-3.695-2.562-1.025-1.535.789-15.126.789-15.126h1.18V24.15h1.172V11.398h1.282v12.754h1.166V11.398h1.33v12.754h1.17V11.398h.906s1.814 13.59.788 15.126c-.82 1.224-2.127 2.206-3.656 2.555l-.052.019.51 9.775c5.649-3.284 9.456-9.385 9.456-16.39-.003-10.473-8.492-18.962-18.964-18.962z" fill="#E1E4F0" fill-rule="nonzero"/>
        <path d="M12.244 17.596c.067-.276.159-.54.163-.544.03-.104-.026-.21-.138-.276-.107-.058-.237-.029-.298.064 0 0-.13.207-.318.512-.152.263-.379.683-.533 1.205a9.97 9.97 0 00-.366 1.75c-.03.358-.038.681-.027 1.014a4.8 4.8 0 00.194 1.075c.373 1.059.66 2.084 1.695 3.095.327.337.664.566.906.735l.086.06a1.739 1.739 0 00.517.246.22.22 0 00.249-.105c.04-.086.01-.194-.073-.263 0 0-.119-.103-.27-.295-.104-.117-.216-.285-.347-.476-.093-.135-.202-.287-.304-.435-.504-.77-.795-1.845-1.197-2.945a3.917 3.917 0 01-.167-.811 8.278 8.278 0 01-.048-.867c-.011-.63.017-1.17.072-1.609.063-.495.112-.866.204-1.13z" fill="#E1E4F0" fill-rule="nonzero"/>
        <path d="M22.485 0C10.088 0 0 10.086 0 22.483c0 12.395 10.088 22.484 22.485 22.484 12.396 0 22.482-10.089 22.482-22.484C44.967 10.086 34.881 0 22.485 0zm0 43.29c-11.474 0-20.809-9.334-20.809-20.807 0-11.473 9.335-20.808 20.809-20.808 11.472 0 20.808 9.335 20.808 20.808 0 11.473-9.336 20.807-20.808 20.807z" fill="#7A89C2" fill-rule="nonzero"/>
    </g>
</svg>
