<svg width="38" height="51" viewBox="0 0 38 51" xmlns="http://www.w3.org/2000/svg">
    <g fill="none" fill-rule="evenodd">
        <path fill="#7A89C2" d="M31.766 48.056V45.13H12.234v2.926H7V51h30v-2.944z"/>
        <path d="M2.344 36.305a5.922 5.922 0 005.916 5.916 5.922 5.922 0 005.916-5.916A5.922 5.922 0 008.26 30.39a5.922 5.922 0 00-5.916 5.916z" stroke="#7A89C2" stroke-width="2" fill="#E1E4F0"/>
        <path d="M17.17 36.54c0 1.819-.548 3.51-1.487 4.918h15.316c2.906 0 5.34-2.19 5.66-5.093a5.729 5.729 0 00-1.554-4.6 5.666 5.666 0 00-4.512-1.743L15.321 31.12a8.837 8.837 0 011.85 5.421z" stroke="#7A89C2" stroke-width="2" fill="#FFF"/>
        <path d="M7.305 23.137c0 .842.685 1.527 1.527 1.527.842 0 1.527-.685 1.527-1.527 0-.841-.685-1.526-1.527-1.526-.842 0-1.527.685-1.527 1.526z" fill="#7A89C2"/>
        <path d="M13.207 24.282l16.617-1.23-.208-2.968-16.585 1.229a4.535 4.535 0 01.176 2.97z" fill="#7A89C2"/>
        <path d="M8.384 27.57a8.56 8.56 0 013.883.927 46.476 46.476 0 01-.459-2.004 4.297 4.297 0 01-2.844 1.077c-2.397 0-4.346-1.972-4.346-4.396s1.95-4.396 4.346-4.396c.698 0 1.357.169 1.942.465a45.953 45.953 0 011.132-12.362 4.816 4.816 0 00-.902-4.075A4.674 4.674 0 007.44 1C5.312 1 3.437 2.447 2.88 4.518a48.762 48.762 0 00-.075 25.108 8.592 8.592 0 015.58-2.056h0z" stroke="#7A89C2" stroke-width="2" fill="#FFF"/>
    </g>
</svg>
